<svg width="16" height="16" viewBox="0 0 16 16" fill="none" xmlns="http://www.w3.org/2000/svg">
<path d="M14.6665 8L9.99984 8C9.5671 8 9.14603 7.85964 8.79984 7.6L7.19984 6.4C6.85364 6.14036 6.43258 6 5.99984 6L1.33317 6" stroke="#7B8088" stroke-width="1.5" stroke-linecap="round" stroke-linejoin="round"/>
<path d="M2 6V7.33333C2 9.84749 2 11.1046 2.78105 11.8856C3.5621 12.6667 4.81918 12.6667 7.33333 12.6667L9.33333 12.6667C11.2059 12.6667 12.1423 12.6667 12.8149 12.2173C13.106 12.0227 13.356 11.7727 13.5506 11.4815C14 10.8089 14 9.87262 14 8" stroke="#7B8088" stroke-width="1.5" stroke-linecap="round" stroke-linejoin="round"/>
<path d="M12 12.6666V14M4 12.6666V14" stroke="#7B8088" stroke-width="1.5" stroke-linecap="round" stroke-linejoin="round"/>
<path d="M3.33325 6L3.33325 3C3.33325 2.44772 3.78097 2 4.33325 2C4.88554 2 5.33325 2.44772 5.33325 3V3.33333" stroke="#7B8088" stroke-width="1.5" stroke-linecap="round" stroke-linejoin="round"/>
</svg>
