<svg width="16" height="16" viewBox="0 0 16 16" fill="none" xmlns="http://www.w3.org/2000/svg">
<path d="M14.6666 11.6666L1.33325 11.6666" stroke="#7B8088" stroke-width="1.5" stroke-linecap="round" stroke-linejoin="round"/>
<path d="M14.6666 14L14.6666 10.6667C14.6666 9.40959 14.6666 8.78105 14.2761 8.39052C13.8855 8 13.257 8 11.9999 8L3.99992 8C2.74284 8 2.1143 8 1.72378 8.39052C1.33325 8.78105 1.33325 9.40959 1.33325 10.6667L1.33325 14" stroke="#7B8088" stroke-width="1.5" stroke-linecap="round" stroke-linejoin="round"/>
<path d="M10.6666 8V7.07854C10.6666 6.7402 10.6056 6.62703 10.293 6.49367C9.642 6.21593 8.85182 6 7.99992 6C7.14802 6 6.35784 6.21593 5.70685 6.49367C5.39428 6.62703 5.33325 6.7402 5.33325 7.07854L5.33325 8" stroke="#7B8088" stroke-width="1.5" stroke-linecap="round"/>
<path d="M2 8L2 6C2 5.05719 2 4.58579 2.29289 4.29289C2.58579 4 3.05719 4 4 4C4.18317 4 4.4379 4.04848 4.60188 3.96008C4.67593 3.92017 4.74233 3.81926 4.87512 3.61744C5.5128 2.64831 6.81641 2 8 2C9.18359 2 10.4872 2.64831 11.1249 3.61744C11.2577 3.81926 11.3241 3.92017 11.3981 3.96008C11.5621 4.04848 11.8168 4 12 4C12.9428 4 13.4142 4 13.7071 4.29289C14 4.58579 14 5.05719 14 6V8" stroke="#7B8088" stroke-width="1.5"/>
</svg>
