<svg width="41" height="40" viewBox="0 0 41 40" fill="none" xmlns="http://www.w3.org/2000/svg">
<g clip-path="url(#clip0_99_10925)">
<rect x="0.333496" width="40" height="40" fill="#F3E8EB"/>
<path d="M19.5835 20.8849L17.641 18.9424L16.5835 19.9999L19.5835 22.9999L24.8335 17.7499L23.776 16.6924L19.5835 20.8849Z" fill="#84143A"/>
<path d="M30.8335 19.25H29.296C29.1165 17.1321 28.1936 15.1459 26.6906 13.6429C25.1876 12.1399 23.2014 11.217 21.0835 11.0375V9.5H19.5835V11.0375C17.4656 11.217 15.4794 12.1399 13.9764 13.6429C12.4734 15.1459 11.5505 17.1321 11.371 19.25H9.8335V20.75H11.371C11.5505 22.8679 12.4734 24.8541 13.9764 26.3571C15.4794 27.8601 17.4656 28.783 19.5835 28.9625V30.5H21.0835V28.9625C23.2014 28.783 25.1876 27.8601 26.6906 26.3571C28.1936 24.8541 29.1165 22.8679 29.296 20.75H30.8335V19.25ZM21.0835 27.4625V25.25H19.5835V27.4625C17.863 27.2872 16.2556 26.5237 15.0327 25.3008C13.8098 24.0779 13.0463 22.4705 12.871 20.75H15.0835V19.25H12.871C13.0463 17.5295 13.8098 15.9221 15.0327 14.6992C16.2556 13.4763 17.863 12.7128 19.5835 12.5375V14.75H21.0835V12.5375C22.804 12.7128 24.4114 13.4763 25.6343 14.6992C26.8572 15.9221 27.6207 17.5295 27.796 19.25H25.5835V20.75H27.7952C27.62 22.4704 26.8565 24.0777 25.6338 25.3005C24.4111 26.5234 22.8039 27.287 21.0835 27.4625Z" fill="#84143A"/>
</g>
<defs>
<clipPath id="clip0_99_10925">
<rect x="0.333496" width="40" height="40" rx="5" fill="white"/>
</clipPath>
</defs>
</svg>
