<svg width="40" height="40" viewBox="0 0 40 40" fill="none" xmlns="http://www.w3.org/2000/svg">
<g clip-path="url(#clip0_99_10908)">
<rect width="40" height="40" fill="#F3E8EB"/>
<path d="M30.625 24.9999C30.625 28.1826 30.625 29.7733 29.6361 30.7622C28.6484 31.7499 27.0565 31.7499 23.875 31.7499H17.125C13.9435 31.7499 12.3516 31.7499 11.3639 30.7622C10.375 29.7722 10.375 28.1826 10.375 24.9999V21.6249M25 11.5022C27.4469 11.5157 28.7721 11.6248 29.6361 12.4888C30.625 13.4777 30.625 15.0684 30.625 18.2499V20.4999M16 11.5022C13.5531 11.5157 12.2279 11.6248 11.3639 12.4888C10.4987 13.3528 10.3908 14.6781 10.3773 17.1249M17.125 26.6874H23.875" stroke="#510C23" stroke-width="2.5" stroke-linecap="round"/>
<path d="M16 10.9375C16 10.4899 16.1778 10.0607 16.4943 9.74426C16.8107 9.42779 17.2399 9.25 17.6875 9.25H23.3125C23.7601 9.25 24.1893 9.42779 24.5057 9.74426C24.8222 10.0607 25 10.4899 25 10.9375V12.0625C25 12.5101 24.8222 12.9393 24.5057 13.2557C24.1893 13.5722 23.7601 13.75 23.3125 13.75H17.6875C17.2399 13.75 16.8107 13.5722 16.4943 13.2557C16.1778 12.9393 16 12.5101 16 12.0625V10.9375Z" stroke="#510C23" stroke-width="2.5"/>
<path d="M16 22.75H17.125M25 22.75H20.5M26.125 18.8125H23.875M20.5 18.8125H14.875" stroke="#510C23" stroke-width="2.5" stroke-linecap="round"/>
</g>
<defs>
<clipPath id="clip0_99_10908">
<rect width="40" height="40" rx="5" fill="white"/>
</clipPath>
</defs>
</svg>
