<svg width="41" height="41" viewBox="0 0 41 41" fill="none" xmlns="http://www.w3.org/2000/svg">
<g clip-path="url(#clip0_99_10893)">
<path d="M0.666748 0.5H40.6667V40.5H0.666748V0.5Z" fill="#F3E8EB"/>
<path fill-rule="evenodd" clip-rule="evenodd" d="M32.1785 16.8296C32.1785 20.7401 28.9947 23.9104 25.0685 23.9104C24.353 23.9104 22.7217 23.7461 21.9286 23.0869L20.9364 24.0746C20.3525 24.6562 20.51 24.8273 20.7699 25.1085C20.8779 25.2266 21.0039 25.3628 21.1017 25.5574C21.1017 25.5574 21.9286 26.7094 21.1017 27.8625C20.6056 28.5206 19.2162 29.442 17.63 27.8625L17.2992 28.191C17.2992 28.191 18.2904 29.3441 17.4646 30.4972C16.9685 31.1554 15.6455 31.8135 14.4879 30.6615L13.3314 31.8135C12.5371 32.6044 11.5674 32.1431 11.1826 31.8135L10.1892 30.8257C9.26335 29.9032 9.80335 28.9042 10.1892 28.5195L18.7865 19.9583C18.7865 19.9583 17.9596 18.642 17.9596 16.8307C17.9596 12.9202 21.1434 9.75 25.0696 9.75C28.9959 9.75 32.1785 12.9203 32.1785 16.8296ZM25.0696 19.3001C25.7258 19.3013 26.3557 19.0419 26.8206 18.5788C27.2856 18.1157 27.5476 17.487 27.5491 16.8307C27.5485 16.5057 27.4839 16.184 27.359 15.884C27.2341 15.5839 27.0513 15.3114 26.821 15.082C26.5908 14.8526 26.3176 14.6708 26.0171 14.5469C25.7166 14.4231 25.3946 14.3597 25.0696 14.3602C24.7446 14.3597 24.4226 14.4231 24.1221 14.5469C23.8216 14.6708 23.5484 14.8526 23.3182 15.082C23.088 15.3114 22.9052 15.5839 22.7802 15.884C22.6553 16.184 22.5907 16.5057 22.5901 16.8307C22.5916 17.487 22.8536 18.1157 23.3186 18.5788C23.7836 19.0419 24.4134 19.3013 25.0696 19.3001Z" fill="#510C23"/>
</g>
<defs>
<clipPath id="clip0_99_10893">
<rect x="0.666748" y="0.5" width="40" height="40" rx="5" fill="white"/>
</clipPath>
</defs>
</svg>
