<svg width="41" height="40" viewBox="0 0 41 40" fill="none" xmlns="http://www.w3.org/2000/svg">
<g clip-path="url(#clip0_99_10900)">
<path d="M0.333496 0H40.3335V40H0.333496V0Z" fill="#F3E8EB"/>
<g clip-path="url(#clip1_99_10900)">
<path d="M15.2 21.6H14.4C14.4 21.8122 14.4843 22.0157 14.6343 22.1657C14.7843 22.3157 14.9878 22.4 15.2 22.4V21.6ZM21.6 21.6V22.4C21.8122 22.4 22.0157 22.3157 22.1657 22.1657C22.3157 22.0157 22.4 21.8122 22.4 21.6H21.6ZM21.6 17.6H22.4C22.4002 17.4949 22.3797 17.3907 22.3396 17.2936C22.2995 17.1964 22.2406 17.108 22.1664 17.0336L21.6 17.6ZM18.4 14.4L18.9664 13.8336C18.8921 13.7591 18.8038 13.7 18.7066 13.6597C18.6094 13.6193 18.5052 13.5986 18.4 13.5986C18.2948 13.5986 18.1906 13.6193 18.0934 13.6597C17.9962 13.7 17.9079 13.7591 17.8336 13.8336L18.4 14.4ZM15.2 17.6L14.6336 17.0336C14.5594 17.108 14.5005 17.1964 14.4604 17.2936C14.4203 17.3907 14.3998 17.4949 14.4 17.6H15.2ZM31.7664 30.6336L25.3664 24.2336L24.2336 25.3664L30.6336 31.7664L31.7664 30.6336ZM18.4 27.2C16.0661 27.2 13.8278 26.2729 12.1775 24.6225C10.5271 22.9722 9.6 20.7339 9.6 18.4H8C8 21.1583 9.09571 23.8035 11.0461 25.7539C12.9965 27.7043 15.6417 28.8 18.4 28.8V27.2ZM27.2 18.4C27.2 20.7339 26.2729 22.9722 24.6225 24.6225C22.9722 26.2729 20.7339 27.2 18.4 27.2V28.8C21.1583 28.8 23.8035 27.7043 25.7539 25.7539C27.7043 23.8035 28.8 21.1583 28.8 18.4H27.2ZM18.4 9.6C20.7339 9.6 22.9722 10.5271 24.6225 12.1775C26.2729 13.8278 27.2 16.0661 27.2 18.4H28.8C28.8 15.6417 27.7043 12.9965 25.7539 11.0461C23.8035 9.09571 21.1583 8 18.4 8V9.6ZM18.4 8C15.6417 8 12.9965 9.09571 11.0461 11.0461C9.09571 12.9965 8 15.6417 8 18.4H9.6C9.6 16.0661 10.5271 13.8278 12.1775 12.1775C13.8278 10.5271 16.0661 9.6 18.4 9.6V8ZM15.2 22.4H21.6V20.8H15.2V22.4ZM22.4 21.6V17.6H20.8V21.6H22.4ZM22.1664 17.0336L18.9664 13.8336L17.8336 14.9664L21.0336 18.1664L22.1664 17.0336ZM17.8336 13.8336L14.6336 17.0336L15.7664 18.1664L18.9664 14.9664L17.8336 13.8336ZM14.4 17.6V21.6H16V17.6H14.4Z" fill="#84143A"/>
</g>
</g>
<defs>
<clipPath id="clip0_99_10900">
<rect x="0.333496" width="40" height="40" rx="5" fill="white"/>
</clipPath>
<clipPath id="clip1_99_10900">
<rect width="24" height="24" fill="white" transform="translate(8 8)"/>
</clipPath>
</defs>
</svg>
