<svg width="40" height="41" viewBox="0 0 40 41" fill="none" xmlns="http://www.w3.org/2000/svg">
<g clip-path="url(#clip0_99_10885)">
<rect y="0.5" width="40" height="40" fill="#F3E8EB"/>
<path d="M17.1053 23.2917L18.5669 22.4471L16.6714 20.8525L17.1053 23.2917Z" fill="#510C23"/>
<path d="M35.1642 20.9837C35.1642 20.6241 34.9874 20.3081 34.7185 20.1098L34.7242 20.1001L30.9363 17.9132L33.1166 14.1367L33.1093 14.1323C33.1782 13.9766 33.2094 13.8069 33.2005 13.637C33.1915 13.467 33.1426 13.3015 33.0577 13.154C32.9723 13.0066 32.8532 12.8814 32.7103 12.7887C32.5673 12.6959 32.4045 12.6382 32.2351 12.6202V12.6096H27.8606V8.24772H27.8517C27.8334 8.0785 27.7756 7.91594 27.6829 7.77323C27.5901 7.63051 27.4651 7.51165 27.3178 7.42628C27.1701 7.34117 27.0043 7.29219 26.834 7.28337C26.6637 7.27454 26.4937 7.30611 26.338 7.3755L26.3327 7.36616L22.481 9.58997L20.3482 5.89553L20.3405 5.9C20.2401 5.76258 20.1087 5.65074 19.9571 5.57352C19.8054 5.49631 19.6377 5.4559 19.4675 5.45557C19.1079 5.45557 18.7915 5.63228 18.5936 5.90122L18.5839 5.89553L16.4157 9.65091L12.6823 7.49535L12.6778 7.50307C12.5222 7.4342 12.3525 7.40298 12.1825 7.41194C12.0126 7.42091 11.8471 7.4698 11.6996 7.55466C11.5521 7.64008 11.4268 7.7591 11.334 7.90204C11.2412 8.04499 11.1834 8.20783 11.1653 8.37732H11.1544V12.7136H6.84324V12.7222C6.67402 12.7404 6.51146 12.7982 6.36875 12.8909C6.22603 12.9837 6.10718 13.1087 6.02181 13.256C5.93691 13.4037 5.88803 13.5693 5.87914 13.7394C5.87024 13.9095 5.90159 14.0793 5.97062 14.235L5.96128 14.2407L8.09246 17.9323L4.27615 20.1358L4.28062 20.1435C4.1432 20.2439 4.03135 20.3753 3.95414 20.527C3.87693 20.6786 3.83652 20.8464 3.83618 21.0166C3.83618 21.3761 4.0129 21.6926 4.28184 21.8904L4.27615 21.9002L8.06403 24.087L5.88368 27.8635L5.89099 27.8676C5.82212 28.0232 5.79091 28.1929 5.79987 28.3629C5.80883 28.5328 5.85773 28.6983 5.94259 28.8458C6.02808 28.9932 6.14712 29.1184 6.29006 29.2111C6.433 29.3039 6.5958 29.3616 6.76524 29.3796V29.3906H11.1393V33.7521H11.1483C11.1857 34.0836 11.3713 34.394 11.6821 34.5735C11.8299 34.6586 11.9957 34.7075 12.1659 34.7163C12.3362 34.7251 12.5062 34.6936 12.662 34.6243L12.6672 34.6337L16.5189 32.4098L18.6517 36.1043L18.6594 36.0998C18.7598 36.2372 18.8912 36.3491 19.0429 36.4263C19.1945 36.5035 19.3623 36.5439 19.5325 36.5443C19.892 36.5443 20.2085 36.3675 20.4063 36.099L20.4157 36.1043L22.5838 32.3489L26.3176 34.5045L26.3221 34.4968C26.4778 34.5656 26.6474 34.5968 26.8174 34.5879C26.9874 34.5789 27.1528 34.53 27.3004 34.4452C27.4479 34.3598 27.5732 34.2408 27.666 34.0978C27.7589 33.9549 27.8166 33.792 27.8346 33.6225H27.8456V29.2866H32.1571V29.2781C32.3263 29.2599 32.4889 29.202 32.6316 29.1093C32.7743 29.0166 32.8932 28.8915 32.9785 28.7443C33.0634 28.5966 33.1123 28.431 33.1212 28.2608C33.1301 28.0907 33.0987 27.9209 33.0297 27.7652L33.0391 27.7599L30.9079 24.0683L34.7242 21.8648L34.7197 21.8571C34.8571 21.7566 34.969 21.6252 35.0462 21.4734C35.1234 21.3217 35.1638 21.1539 35.1642 20.9837ZM14.4369 27.1737C13.5309 27.6969 12.7095 27.7684 12.0112 27.5808L12.1091 26.4851C12.638 26.6383 13.3217 26.6374 13.9677 26.2641C14.523 25.9436 14.6412 25.5471 14.4832 25.2737C14.0123 24.4587 11.6427 26.5858 10.6242 24.8223C10.1741 24.0423 10.4751 23.006 11.5789 22.369C12.3236 21.9388 13.0719 21.8071 13.7832 21.9676L13.6577 23.0332C13.0755 22.9016 12.4763 23.0316 11.9986 23.307C11.5769 23.5508 11.4432 23.8713 11.6057 24.1528C12.0319 24.8906 14.4352 22.8382 15.4452 24.5871C15.9404 25.4439 15.6954 26.4477 14.4369 27.1737ZM20.1012 23.7913L19.348 23.1677L17.3383 24.3279L17.5012 25.2923L16.3698 25.9452L15.47 20.2158L16.7208 19.4939L21.2326 23.1384L20.1012 23.7913ZM21.6259 22.9113L18.9198 18.224L19.9249 17.6435L22.1239 21.4521L24.1056 20.3081L24.613 21.1868L21.6259 22.9113ZM25.287 20.7976L22.581 16.1107L25.8976 14.1952L26.4046 15.0735L24.0861 16.4125L24.6541 17.3965L26.9234 16.0859L27.4304 16.9642L25.1611 18.2744L25.7777 19.3428L28.0966 18.0038L28.604 18.8821L25.287 20.7976Z" fill="#510C23"/>
</g>
<defs>
<clipPath id="clip0_99_10885">
<rect y="0.5" width="40" height="40" rx="5" fill="white"/>
</clipPath>
</defs>
</svg>
