<svg width="16" height="16" viewBox="0 0 16 16" fill="none" xmlns="http://www.w3.org/2000/svg">
<path d="M9.33325 6.66657L13.6666 2.33324M13.934 5.33321L13.9965 2.6822C14.0041 2.36121 14.0079 2.20071 13.9094 2.10029C13.8109 1.99988 13.6498 1.99988 13.3275 1.99988H10.6666" stroke="#7B8088" stroke-width="1.5" stroke-linecap="round" stroke-linejoin="round"/>
<path d="M6.66664 6.66659L2.33331 2.33326M5.33333 1.99988H2.66667C2.3524 1.99988 2.19526 1.99988 2.09763 2.09751C2 2.19514 2 2.35227 2 2.66654V5.33321" stroke="#7B8088" stroke-width="1.5" stroke-linecap="round" stroke-linejoin="round"/>
<path d="M6.66665 9.33325L2.33332 13.6666M2 10.6666V13.3332C2 13.6475 2 13.8046 2.09763 13.9023C2.19526 13.9999 2.3524 13.9999 2.66667 13.9999H5.33333" stroke="#7B8088" stroke-width="1.5" stroke-linecap="round" stroke-linejoin="round"/>
<path d="M9.33325 9.33325L13.6666 13.6666M10.6666 13.9999H13.3333C13.6476 13.9999 13.8047 13.9999 13.9023 13.9022C13.9999 13.8046 13.9999 13.6475 13.9999 13.3332V10.6665" stroke="#7B8088" stroke-width="1.5" stroke-linecap="round" stroke-linejoin="round"/>
</svg>
