<svg width="41" height="40" viewBox="0 0 41 40" fill="none" xmlns="http://www.w3.org/2000/svg">
<g clip-path="url(#clip0_99_10918)">
<rect x="0.666748" width="40" height="40" fill="#F3E8EB"/>
<g clip-path="url(#clip1_99_10918)">
<path d="M25.5642 16.9922C25.2452 17.1654 24.9399 17.3522 24.6482 17.5527C24.3565 17.7533 24.0831 17.9811 23.8279 18.2363V18.0176L20.3279 16.0215L16.8279 18.0176V21.9824L20.3279 23.9785L21.6677 23.2129C21.6677 23.2585 21.6632 23.304 21.6541 23.3496C21.6449 23.3952 21.6404 23.4453 21.6404 23.5C21.6404 23.7734 21.6586 24.0469 21.6951 24.3203C21.7315 24.5938 21.7862 24.8626 21.8591 25.127L20.3279 26.002L15.0779 22.9941V17.0059L20.3279 13.998L25.5642 16.9922ZM9.82788 14.0117V25.9883L17.7439 30.5C17.516 30.737 17.311 30.9512 17.1287 31.1426C16.9464 31.334 16.7869 31.5846 16.6501 31.8945L8.07788 27V13L20.3279 6L32.5779 13V16.9785C32.0219 16.6686 31.4386 16.4408 30.8279 16.2949V14.0117L20.3279 8.00977L9.82788 14.0117ZM29.0779 18.25C29.7979 18.25 30.477 18.3867 31.115 18.6602C31.753 18.9336 32.309 19.3073 32.783 19.7812C33.2569 20.2552 33.6352 20.8158 33.9177 21.4629C34.2003 22.11 34.337 22.7891 34.3279 23.5C34.3279 24.2292 34.1912 24.9082 33.9177 25.5371C33.6443 26.166 33.2706 26.722 32.7966 27.2051C32.3227 27.6882 31.7621 28.0664 31.115 28.3398C30.4679 28.6133 29.7888 28.75 29.0779 28.75C28.531 28.75 27.9978 28.668 27.4783 28.5039C26.9587 28.3398 26.4802 28.0983 26.0427 27.7793L20.0681 33.7402C19.8949 33.9134 19.6899 34 19.4529 34C19.2159 34 19.0108 33.9134 18.8376 33.7402C18.6645 33.5671 18.5779 33.362 18.5779 33.125C18.5779 32.888 18.6645 32.6829 18.8376 32.5098L24.7986 26.5352C24.4796 26.0977 24.238 25.6191 24.074 25.0996C23.9099 24.5801 23.8279 24.0469 23.8279 23.5C23.8279 22.7799 23.9646 22.1009 24.238 21.4629C24.5115 20.8249 24.8852 20.2689 25.3591 19.7949C25.8331 19.321 26.3891 18.9427 27.0271 18.6602C27.6651 18.3776 28.3487 18.2409 29.0779 18.25ZM29.0779 27C29.561 27 30.0121 26.9089 30.4314 26.7266C30.8507 26.5443 31.2244 26.2936 31.5525 25.9746C31.8806 25.6556 32.1313 25.2865 32.3044 24.8672C32.4776 24.4479 32.5688 23.9922 32.5779 23.5C32.5779 23.0169 32.4867 22.5658 32.3044 22.1465C32.1222 21.7272 31.8715 21.3535 31.5525 21.0254C31.2335 20.6973 30.8643 20.4466 30.4451 20.2734C30.0258 20.1003 29.5701 20.0091 29.0779 20C28.5948 20 28.1436 20.0911 27.7244 20.2734C27.3051 20.4557 26.9314 20.7064 26.6033 21.0254C26.2751 21.3444 26.0245 21.7135 25.8513 22.1328C25.6781 22.5521 25.587 23.0078 25.5779 23.5C25.5779 23.9831 25.669 24.4342 25.8513 24.8535C26.0336 25.2728 26.2843 25.6465 26.6033 25.9746C26.9223 26.3027 27.2914 26.5534 27.7107 26.7266C28.13 26.8997 28.5857 26.9909 29.0779 27Z" fill="#510C23"/>
</g>
</g>
<defs>
<clipPath id="clip0_99_10918">
<rect x="0.666748" width="40" height="40" rx="5" fill="white"/>
</clipPath>
<clipPath id="clip1_99_10918">
<rect width="28" height="28" fill="white" transform="translate(6.32788 6)"/>
</clipPath>
</defs>
</svg>
